<svg width="4" height="4" viewBox="0 0 4 4" fill="none" xmlns="http://www.w3.org/2000/svg">
<path d="M2 0C1.60444 0 1.21776 0.117298 0.888861 0.337061C0.559963 0.556824 0.303617 0.869181 0.152242 1.23463C0.000866562 1.60009 -0.0387401 2.00222 0.0384303 2.39018C0.115601 2.77814 0.306082 3.13451 0.585787 3.41421C0.865492 3.69392 1.22186 3.8844 1.60982 3.96157C1.99778 4.03874 2.39992 3.99913 2.76537 3.84776C3.13082 3.69638 3.44318 3.44004 3.66294 3.11114C3.8827 2.78224 4 2.39556 4 2C4 1.46957 3.78929 0.960859 3.41421 0.585786C3.03914 0.210714 2.53043 0 2 0ZM2 3C1.80222 3 1.60888 2.94135 1.44443 2.83147C1.27998 2.72159 1.15181 2.56541 1.07612 2.38268C1.00043 2.19996 0.98063 1.99889 1.01922 1.80491C1.0578 1.61093 1.15304 1.43275 1.29289 1.29289C1.43275 1.15304 1.61093 1.0578 1.80491 1.01921C1.99889 0.980629 2.19996 1.00043 2.38268 1.07612C2.56541 1.15181 2.72159 1.27998 2.83147 1.44443C2.94135 1.60888 3 1.80222 3 2C3 2.26522 2.89464 2.51957 2.70711 2.70711C2.51957 2.89464 2.26522 3 2 3Z" fill="#222222"/>
</svg>
