<svg width="68" height="68" viewBox="0 0 68 68" fill="none" xmlns="http://www.w3.org/2000/svg">
<rect x="10" y="10" width="48" height="48" rx="24" fill="#581ADB"/>
<path d="M33.002 41.998C35.3889 41.998 37.6781 41.0498 39.3659 39.362C41.0537 37.6742 42.002 35.385 42.002 32.998C42.002 30.6111 41.0537 28.3219 39.3659 26.6341C37.6781 24.9463 35.3889 23.998 33.002 23.998C30.615 23.998 28.3258 24.9463 26.638 26.6341C24.9502 28.3219 24.002 30.6111 24.002 32.998C24.002 35.385 24.9502 37.6742 26.638 39.362C28.3258 41.0498 30.615 41.998 33.002 41.998ZM40.932 42.688C41.462 44.288 42.672 44.448 43.602 43.048C44.452 41.768 43.892 40.718 42.352 40.718C41.212 40.708 40.572 41.598 40.932 42.688Z" stroke="white" stroke-width="1.5" stroke-linecap="round" stroke-linejoin="round"/>
</svg>
