<svg width="24" height="25" viewBox="0 0 24 25" fill="none" xmlns="http://www.w3.org/2000/svg">
<path d="M5 8.12697C3 8.12697 2 9.14284 2 11.1746V19.3016C2 21.3333 3 22.3492 5 22.3492H13C11 22.3492 10 21.3333 10 19.3016V8.12697M5 8.12697H10M5 8.12697V6.09522C5 4.97776 5.9 4.06348 7 4.06348H10.11C10.03 4.36824 10 4.70348 10 5.07935V8.12697M14 8.12697V13.2063M18 8.12697V13.2063M6 13.2063V17.2698M17 17.2698H15C14.45 17.2698 14 17.727 14 18.2857V22.3492H18V18.2857C18 17.727 17.55 17.2698 17 17.2698Z" stroke="#717171" stroke-width="1.5" stroke-miterlimit="10" stroke-linecap="round" stroke-linejoin="round"/>
<path d="M10 19.3021V5.07985C10 3.0481 11 2.03223 13 2.03223H19C21 2.03223 22 3.0481 22 5.07985V19.3021C22 21.3338 21 22.3497 19 22.3497H13C11 22.3497 10 21.3338 10 19.3021Z" stroke="#717171" stroke-width="1.5" stroke-miterlimit="10" stroke-linecap="round" stroke-linejoin="round"/>
</svg>
