<svg width="24" height="24" viewBox="0 0 24 24" fill="none" xmlns="http://www.w3.org/2000/svg">
<path d="M6.7 18H4.15C2.72 18 2 17.28 2 15.85V4.15C2 2.72 2.72 2 4.15 2H8.45C9.88 2 10.6 2.72 10.6 4.15V6" stroke="#717171" stroke-width="1.5" stroke-miterlimit="10" stroke-linecap="round" stroke-linejoin="round"/>
<path d="M17.3692 8.42V19.58C17.3692 21.19 16.5692 22 14.9592 22H9.11922C7.50922 22 6.69922 21.19 6.69922 19.58V8.42C6.69922 6.81 7.50922 6 9.11922 6H14.9592C16.5692 6 17.3692 6.81 17.3692 8.42Z" stroke="#717171" stroke-width="1.5" stroke-miterlimit="10" stroke-linecap="round" stroke-linejoin="round"/>
<path d="M13.4 6V4.15C13.4 2.72 14.12 2 15.55 2H19.85C21.28 2 22 2.72 22 4.15V15.85C22 17.28 21.28 18 19.85 18H17.37M10 11H14M10 14H14M12 22V19" stroke="#717171" stroke-width="1.5" stroke-miterlimit="10" stroke-linecap="round" stroke-linejoin="round"/>
</svg>
