<svg width="24" height="25" viewBox="0 0 24 25" fill="none" xmlns="http://www.w3.org/2000/svg">
<path d="M12 5.64844H22" stroke="#717171" stroke-width="1.5" stroke-miterlimit="10" stroke-linecap="round" stroke-linejoin="round"/>
<path d="M14.22 2.03223H19.78C21.56 2.03223 22 2.47921 22 4.26715V8.44239C22 10.2303 21.56 10.6773 19.78 10.6773H14.22C12.44 10.6773 12 10.2303 12 8.44239V4.26715C12 2.47921 12.44 2.03223 14.22 2.03223Z" stroke="#717171" stroke-width="1.5" stroke-linecap="round" stroke-linejoin="round"/>
<path d="M2 17.3311H12" stroke="#717171" stroke-width="1.5" stroke-miterlimit="10" stroke-linecap="round" stroke-linejoin="round"/>
<path d="M22 15.2386C22 19.17 18.87 22.3497 15 22.3497L16.05 20.5719M2 9.14334C2 5.21191 5.13 2.03223 9 2.03223L7.95 3.81M4.22 13.7148H9.78C11.56 13.7148 12 14.1618 12 15.9497V20.1249C12 21.9129 11.56 22.3598 9.78 22.3598H4.22C2.44 22.3598 2 21.9129 2 20.1249V15.9497C2 14.1618 2.44 13.7148 4.22 13.7148Z" stroke="#717171" stroke-width="1.5" stroke-linecap="round" stroke-linejoin="round"/>
</svg>
