<svg width="24" height="25" viewBox="0 0 24 25" fill="none" xmlns="http://www.w3.org/2000/svg">
<path d="M12.0005 2.03223V9.14334M12.0005 9.14334L14.0005 7.11159M12.0005 9.14334L10.0005 7.11159M1.98047 13.2068H6.39047C6.77047 13.2068 7.11047 13.4202 7.28047 13.7656L8.45047 16.1427C8.61605 16.4812 8.87129 16.7661 9.18751 16.9653C9.50373 17.1645 9.86838 17.2701 10.2405 17.2703H13.7705C14.1426 17.2701 14.5072 17.1645 14.8234 16.9653C15.1396 16.7661 15.3949 16.4812 15.5605 16.1427L16.7305 13.7656C16.8136 13.598 16.9407 13.4571 17.0978 13.3585C17.2549 13.2599 17.4358 13.2074 17.6205 13.2068H21.9805" stroke="#717171" stroke-width="1.5" stroke-linecap="round" stroke-linejoin="round"/>
<path d="M7 4.19531C3.46 4.72357 2 6.83658 2 11.1744V15.2379C2 20.3172 4 22.349 9 22.349H15C20 22.349 22 20.3172 22 15.2379V11.1744C22 6.83658 20.54 4.72357 17 4.19531" stroke="#717171" stroke-width="1.5" stroke-linecap="round" stroke-linejoin="round"/>
</svg>
