<svg width="18" height="16" viewBox="0 0 18 16" fill="none" xmlns="http://www.w3.org/2000/svg">
<path d="M17 3.5998H12.2M4.2 3.5998H1M17 12.3998H13.8M5.8 12.3998H1M7.4 6.3998C7.7677 6.3998 8.1318 6.32738 8.47151 6.18667C8.81123 6.04595 9.11989 5.83971 9.3799 5.5797C9.6399 5.3197 9.84615 5.01103 9.98686 4.67132C10.1276 4.33161 10.2 3.96751 10.2 3.5998C10.2 3.2321 10.1276 2.868 9.98686 2.52829C9.84615 2.18858 9.6399 1.87991 9.3799 1.61991C9.11989 1.3599 8.81123 1.15366 8.47151 1.01294C8.1318 0.872229 7.7677 0.799805 7.4 0.799805C6.65739 0.799805 5.9452 1.0948 5.4201 1.61991C4.895 2.14501 4.6 2.8572 4.6 3.5998C4.6 4.34241 4.895 5.0546 5.4201 5.5797C5.9452 6.10481 6.65739 6.3998 7.4 6.3998ZM10.6 15.1998C11.3426 15.1998 12.0548 14.9048 12.5799 14.3797C13.105 13.8546 13.4 13.1424 13.4 12.3998C13.4 11.6572 13.105 10.945 12.5799 10.4199C12.0548 9.8948 11.3426 9.5998 10.6 9.5998C9.85739 9.5998 9.1452 9.8948 8.6201 10.4199C8.095 10.945 7.8 11.6572 7.8 12.3998C7.8 13.1424 8.095 13.8546 8.6201 14.3797C9.1452 14.9048 9.85739 15.1998 10.6 15.1998Z" stroke="#717171" stroke-width="1.5" stroke-miterlimit="10" stroke-linecap="round" stroke-linejoin="round"/>
</svg>
