<svg width="24" height="24" viewBox="0 0 24 24" fill="none" xmlns="http://www.w3.org/2000/svg">
<path d="M12 21C13.1046 21 14 20.1046 14 19C14 17.8954 13.1046 17 12 17C10.8954 17 10 17.8954 10 19C10 20.1046 10.8954 21 12 21Z" stroke="#717171" stroke-width="1.5" stroke-miterlimit="10"/>
<path d="M7.28906 14.0597C7.90753 13.4411 8.6418 12.9504 9.44995 12.6155C10.2581 12.2807 11.1243 12.1084 11.9991 12.1084C12.8738 12.1084 13.74 12.2807 14.5482 12.6155C15.3563 12.9504 16.0906 13.4411 16.7091 14.0597" stroke="#717171" stroke-width="1.5" stroke-miterlimit="10"/>
<path d="M4.14062 10.92C6.22578 8.83641 9.0529 7.66602 12.0006 7.66602C14.9483 7.66602 17.7755 8.83641 19.8606 10.92" stroke="#717171" stroke-width="1.5" stroke-miterlimit="10"/>
<path d="M1 7.77968C2.44412 6.33439 4.1589 5.18785 6.04634 4.40559C7.93378 3.62334 9.95688 3.2207 12 3.2207C14.0431 3.2207 16.0662 3.62334 17.9537 4.40559C19.8411 5.18785 21.5559 6.33439 23 7.77968" stroke="#717171" stroke-width="1.5" stroke-miterlimit="10"/>
</svg>
