<svg width="24" height="24" viewBox="0 0 24 24" fill="none" xmlns="http://www.w3.org/2000/svg">
<path d="M7.23031 1.5H16.7803C17.2869 1.5 17.7727 1.70123 18.1309 2.05943C18.4891 2.41762 18.6903 2.90344 18.6903 3.41V22.5H5.32031V3.41C5.32031 2.90344 5.52154 2.41762 5.87974 2.05943C6.23793 1.70123 6.72375 1.5 7.23031 1.5Z" stroke="#717171" stroke-width="1.5" stroke-miterlimit="10"/>
<path d="M7.23031 1.5H16.7803C17.2869 1.5 17.7727 1.70123 18.1309 2.05943C18.4891 2.41762 18.6903 2.90344 18.6903 3.41V10.09H5.32031V3.41C5.32031 2.90344 5.52154 2.41762 5.87974 2.05943C6.23793 1.70123 6.72375 1.5 7.23031 1.5Z" stroke="#717171" stroke-width="1.5" stroke-miterlimit="10"/>
<path d="M8.17969 4.36035V7.23035" stroke="#717171" stroke-width="1.5" stroke-miterlimit="10"/>
<path d="M8.17969 12.9502V15.8202" stroke="#717171" stroke-width="1.5" stroke-miterlimit="10"/>
</svg>
