<svg width="24" height="24" viewBox="0 0 24 24" fill="none" xmlns="http://www.w3.org/2000/svg">
<path d="M13.0598 10.9404C13.5947 11.4737 14.0191 12.1072 14.3087 12.8048C14.5982 13.5023 14.7473 14.2502 14.7473 15.0054C14.7473 15.7607 14.5982 16.5085 14.3087 17.2061C14.0191 17.9036 13.5947 18.5372 13.0598 19.0704C10.8098 21.3104 7.16985 21.3204 4.92985 19.0704C2.68985 16.8204 2.67985 13.1804 4.92985 10.9404" stroke="#717171" stroke-width="1.5" stroke-linecap="round" stroke-linejoin="round"/>
<path d="M10.5909 13.4099C8.25094 11.0699 8.25094 7.26988 10.5909 4.91988C12.9309 2.56988 16.7309 2.57988 19.0809 4.91988C21.4309 7.25988 21.4209 11.0599 19.0809 13.4099" stroke="#717171" stroke-width="1.5" stroke-linecap="round" stroke-linejoin="round"/>
</svg>
