<svg width="271" height="40" viewBox="0 0 271 40" fill="none" xmlns="http://www.w3.org/2000/svg">
<rect x="0.5" y="0.5" width="270" height="39" rx="19.5" fill="white"/>
<rect x="0.5" y="0.5" width="270" height="39" rx="19.5" stroke="#DDDDDD"/>
<path d="M29.04 25.644C28.4533 25.644 27.8987 25.5907 27.376 25.484C26.864 25.3773 26.3893 25.228 25.952 25.036C25.5253 24.8333 25.136 24.588 24.784 24.3L25.248 23.244C25.6107 23.5107 25.9787 23.74 26.352 23.932C26.736 24.1133 27.1467 24.252 27.584 24.348C28.032 24.4333 28.5173 24.476 29.04 24.476C30 24.476 30.7093 24.3 31.168 23.948C31.6373 23.5853 31.872 23.1107 31.872 22.524C31.872 22.2147 31.7973 21.948 31.648 21.724C31.5093 21.5 31.2747 21.308 30.944 21.148C30.624 20.988 30.2027 20.8547 29.68 20.748L28.016 20.412C27.0133 20.1987 26.2613 19.852 25.76 19.372C25.2693 18.8813 25.024 18.2307 25.024 17.42C25.024 16.748 25.1947 16.1613 25.536 15.66C25.888 15.1587 26.3733 14.7693 26.992 14.492C27.6213 14.2147 28.336 14.076 29.136 14.076C29.648 14.076 30.1333 14.1293 30.592 14.236C31.0507 14.3427 31.472 14.5027 31.856 14.716C32.2507 14.9187 32.5973 15.1693 32.896 15.468L32.432 16.492C31.952 16.0547 31.4453 15.74 30.912 15.548C30.3787 15.3453 29.7813 15.244 29.12 15.244C28.5547 15.244 28.064 15.3293 27.648 15.5C27.2427 15.6707 26.9227 15.9213 26.688 16.252C26.464 16.572 26.352 16.9453 26.352 17.372C26.352 17.884 26.5067 18.2893 26.816 18.588C27.136 18.8867 27.6533 19.1053 28.368 19.244L30.032 19.596C31.1093 19.82 31.904 20.1613 32.416 20.62C32.9387 21.068 33.2 21.6813 33.2 22.46C33.2 23.0787 33.0293 23.6333 32.688 24.124C32.3573 24.604 31.8773 24.9773 31.248 25.244C30.6293 25.5107 29.8933 25.644 29.04 25.644ZM38.5638 25.644C37.7424 25.644 37.0331 25.484 36.4358 25.164C35.8491 24.8333 35.3904 24.3693 35.0598 23.772C34.7398 23.1747 34.5798 22.46 34.5798 21.628C34.5798 20.8173 34.7398 20.1133 35.0598 19.516C35.3798 18.908 35.8171 18.4333 36.3718 18.092C36.9371 17.7507 37.5878 17.58 38.3238 17.58C39.0278 17.58 39.6304 17.7347 40.1318 18.044C40.6331 18.3533 41.0171 18.7907 41.2838 19.356C41.5611 19.9213 41.6998 20.5987 41.6998 21.388V21.884H35.5718V21.036H40.8358L40.5798 21.244C40.5798 20.3907 40.3878 19.7293 40.0038 19.26C39.6304 18.78 39.0811 18.54 38.3558 18.54C37.8118 18.54 37.3478 18.668 36.9638 18.924C36.5904 19.1693 36.3078 19.516 36.1158 19.964C35.9238 20.4013 35.8278 20.9133 35.8278 21.5V21.596C35.8278 22.2467 35.9291 22.796 36.1318 23.244C36.3451 23.692 36.6598 24.0333 37.0758 24.268C37.4918 24.492 37.9878 24.604 38.5638 24.604C39.0224 24.604 39.4651 24.5347 39.8918 24.396C40.3291 24.2467 40.7398 24.0067 41.1238 23.676L41.5718 24.588C41.2198 24.908 40.7718 25.164 40.2278 25.356C39.6838 25.548 39.1291 25.644 38.5638 25.644ZM47.0794 25.644C46.258 25.644 45.5487 25.484 44.9514 25.164C44.3647 24.8333 43.906 24.3693 43.5754 23.772C43.2554 23.1747 43.0954 22.46 43.0954 21.628C43.0954 20.8173 43.2554 20.1133 43.5754 19.516C43.8954 18.908 44.3327 18.4333 44.8874 18.092C45.4527 17.7507 46.1034 17.58 46.8394 17.58C47.5434 17.58 48.146 17.7347 48.6474 18.044C49.1487 18.3533 49.5327 18.7907 49.7994 19.356C50.0767 19.9213 50.2154 20.5987 50.2154 21.388V21.884H44.0874V21.036H49.3514L49.0954 21.244C49.0954 20.3907 48.9034 19.7293 48.5194 19.26C48.146 18.78 47.5967 18.54 46.8714 18.54C46.3274 18.54 45.8634 18.668 45.4794 18.924C45.106 19.1693 44.8234 19.516 44.6314 19.964C44.4394 20.4013 44.3434 20.9133 44.3434 21.5V21.596C44.3434 22.2467 44.4447 22.796 44.6474 23.244C44.8607 23.692 45.1754 24.0333 45.5914 24.268C46.0074 24.492 46.5034 24.604 47.0794 24.604C47.538 24.604 47.9807 24.5347 48.4074 24.396C48.8447 24.2467 49.2554 24.0067 49.6394 23.676L50.0874 24.588C49.7354 24.908 49.2874 25.164 48.7434 25.356C48.1994 25.548 47.6447 25.644 47.0794 25.644ZM59.3204 25.644C58.403 25.644 57.715 25.3987 57.2564 24.908C56.7977 24.4173 56.5684 23.7187 56.5684 22.812V18.732H55.0484V17.724H56.5684V15.34H57.8644V17.724H60.3284V18.732H57.8644V22.684C57.8644 23.292 57.9924 23.756 58.2484 24.076C58.5044 24.3853 58.9204 24.54 59.4964 24.54C59.667 24.54 59.8377 24.5187 60.0084 24.476C60.179 24.4333 60.3337 24.3907 60.4724 24.348L60.6964 25.34C60.5577 25.4147 60.355 25.484 60.0884 25.548C59.8217 25.612 59.5657 25.644 59.3204 25.644ZM61.7941 25.5V14.22H63.0901V19.452H62.8821C63.1061 18.8333 63.4688 18.3693 63.9701 18.06C64.4821 17.74 65.0688 17.58 65.7301 17.58C66.3488 17.58 66.8608 17.692 67.2661 17.916C67.6821 18.14 67.9915 18.4813 68.1941 18.94C68.3968 19.388 68.4981 19.9587 68.4981 20.652V25.5H67.2021V20.732C67.2021 20.252 67.1381 19.8573 67.0101 19.548C66.8928 19.2387 66.7008 19.0093 66.4341 18.86C66.1781 18.7107 65.8421 18.636 65.4261 18.636C64.9568 18.636 64.5461 18.7373 64.1941 18.94C63.8421 19.1427 63.5701 19.4253 63.3781 19.788C63.1861 20.1507 63.0901 20.5773 63.0901 21.068V25.5H61.7941ZM74.3919 25.644C73.5705 25.644 72.8612 25.484 72.2639 25.164C71.6772 24.8333 71.2185 24.3693 70.8879 23.772C70.5679 23.1747 70.4079 22.46 70.4079 21.628C70.4079 20.8173 70.5679 20.1133 70.8879 19.516C71.2079 18.908 71.6452 18.4333 72.1999 18.092C72.7652 17.7507 73.4159 17.58 74.1519 17.58C74.8559 17.58 75.4585 17.7347 75.9599 18.044C76.4612 18.3533 76.8452 18.7907 77.1119 19.356C77.3892 19.9213 77.5279 20.5987 77.5279 21.388V21.884H71.3999V21.036H76.6639L76.4079 21.244C76.4079 20.3907 76.2159 19.7293 75.8319 19.26C75.4585 18.78 74.9092 18.54 74.1839 18.54C73.6399 18.54 73.1759 18.668 72.7919 18.924C72.4185 19.1693 72.1359 19.516 71.9439 19.964C71.7519 20.4013 71.6559 20.9133 71.6559 21.5V21.596C71.6559 22.2467 71.7572 22.796 71.9599 23.244C72.1732 23.692 72.4879 24.0333 72.9039 24.268C73.3199 24.492 73.8159 24.604 74.3919 24.604C74.8505 24.604 75.2932 24.5347 75.7199 24.396C76.1572 24.2467 76.5679 24.0067 76.9519 23.676L77.3999 24.588C77.0479 24.908 76.5999 25.164 76.0559 25.356C75.5119 25.548 74.9572 25.644 74.3919 25.644ZM83.5449 25.5V17.724H84.8089V19.452H84.6329C84.7609 19.0573 84.9475 18.7213 85.1929 18.444C85.4489 18.156 85.7475 17.9427 86.0889 17.804C86.4409 17.6547 86.8249 17.58 87.2409 17.58C87.9022 17.58 88.4355 17.74 88.8409 18.06C89.2569 18.3693 89.5342 18.8547 89.6729 19.516H89.4329C89.6249 18.9187 89.9662 18.4493 90.4569 18.108C90.9582 17.756 91.5395 17.58 92.2009 17.58C92.7875 17.58 93.2675 17.692 93.6409 17.916C94.0249 18.14 94.3129 18.4813 94.5049 18.94C94.6969 19.388 94.7929 19.9587 94.7929 20.652V25.5H93.4969V20.716C93.4969 20.0013 93.3742 19.4787 93.1289 19.148C92.8835 18.8067 92.4675 18.636 91.8809 18.636C91.4649 18.636 91.0969 18.7373 90.7769 18.94C90.4675 19.1427 90.2275 19.4307 90.0569 19.804C89.8969 20.1667 89.8169 20.5987 89.8169 21.1V25.5H88.5209V20.716C88.5209 20.0013 88.3929 19.4787 88.1369 19.148C87.8915 18.8067 87.4809 18.636 86.9049 18.636C86.4782 18.636 86.1102 18.7373 85.8009 18.94C85.4915 19.1427 85.2515 19.4307 85.0809 19.804C84.9209 20.1667 84.8409 20.5987 84.8409 21.1V25.5H83.5449ZM99.664 25.644C99.1307 25.644 98.6507 25.5427 98.224 25.34C97.808 25.1267 97.4773 24.8387 97.232 24.476C96.9867 24.1133 96.864 23.708 96.864 23.26C96.864 22.684 97.008 22.2307 97.296 21.9C97.5947 21.5693 98.08 21.3347 98.752 21.196C99.4347 21.0573 100.363 20.988 101.536 20.988H102.256V21.836H101.552C100.901 21.836 100.357 21.8573 99.92 21.9C99.4827 21.9427 99.136 22.0173 98.88 22.124C98.624 22.2307 98.4427 22.3693 98.336 22.54C98.2293 22.7107 98.176 22.924 98.176 23.18C98.176 23.6173 98.3253 23.9747 98.624 24.252C98.9333 24.5293 99.3493 24.668 99.872 24.668C100.299 24.668 100.672 24.5667 100.992 24.364C101.323 24.1613 101.579 23.884 101.76 23.532C101.952 23.18 102.048 22.7747 102.048 22.316V20.492C102.048 19.8307 101.915 19.356 101.648 19.068C101.381 18.7693 100.944 18.62 100.336 18.62C99.8667 18.62 99.4133 18.6893 98.976 18.828C98.5387 18.956 98.0907 19.1693 97.632 19.468L97.184 18.524C97.4613 18.332 97.776 18.1667 98.128 18.028C98.48 17.8787 98.848 17.7667 99.232 17.692C99.616 17.6173 99.984 17.58 100.336 17.58C101.008 17.58 101.563 17.692 102 17.916C102.437 18.1293 102.763 18.46 102.976 18.908C103.189 19.3453 103.296 19.9107 103.296 20.604V25.5H102.08V23.692H102.224C102.139 24.0973 101.973 24.444 101.728 24.732C101.493 25.02 101.2 25.244 100.848 25.404C100.496 25.564 100.101 25.644 99.664 25.644ZM105.7 28.38V17.724H106.964V19.564H106.804C106.975 18.956 107.311 18.476 107.812 18.124C108.324 17.7613 108.932 17.58 109.636 17.58C110.33 17.58 110.932 17.7453 111.444 18.076C111.967 18.396 112.367 18.86 112.644 19.468C112.932 20.0653 113.076 20.78 113.076 21.612C113.076 22.4333 112.932 23.148 112.644 23.756C112.367 24.3533 111.972 24.8173 111.46 25.148C110.948 25.4787 110.34 25.644 109.636 25.644C108.932 25.644 108.33 25.468 107.828 25.116C107.327 24.7533 106.986 24.2733 106.804 23.676H106.996V28.38H105.7ZM109.364 24.604C110.1 24.604 110.682 24.348 111.108 23.836C111.546 23.3133 111.764 22.572 111.764 21.612C111.764 20.6413 111.546 19.9 111.108 19.388C110.682 18.876 110.1 18.62 109.364 18.62C108.639 18.62 108.058 18.876 107.62 19.388C107.183 19.9 106.964 20.6413 106.964 21.612C106.964 22.572 107.183 23.3133 107.62 23.836C108.058 24.348 108.639 24.604 109.364 24.604Z" fill="#EE0039"/>
<path d="M259.621 16.45C258.571 11.83 254.541 9.75 251.001 9.75H250.991C247.461 9.75 243.421 11.82 242.371 16.44C241.201 21.6 244.361 25.97 247.221 28.72C248.235 29.7012 249.59 30.2498 251.001 30.25C252.361 30.25 253.721 29.74 254.771 28.72C257.631 25.97 260.791 21.61 259.621 16.45ZM251.001 21.46C250.587 21.46 250.178 21.3785 249.796 21.2202C249.413 21.0619 249.066 20.8299 248.774 20.5374C248.481 20.2449 248.249 19.8976 248.091 19.5155C247.933 19.1333 247.851 18.7237 247.851 18.31C247.851 17.8963 247.933 17.4867 248.091 17.1045C248.249 16.7224 248.481 16.3751 248.774 16.0826C249.066 15.7901 249.413 15.5581 249.796 15.3998C250.178 15.2415 250.587 15.16 251.001 15.16C251.837 15.16 252.638 15.4919 253.228 16.0826C253.819 16.6734 254.151 17.4746 254.151 18.31C254.151 19.1454 253.819 19.9466 253.228 20.5374C252.638 21.1281 251.837 21.46 251.001 21.46Z" fill="#EE0039"/>
</svg>
