<svg width="24" height="25" viewBox="0 0 24 25" fill="none" xmlns="http://www.w3.org/2000/svg">
<path d="M4.17038 15.5431L8.70038 20.145C9.5964 21.0525 10.8101 21.5622 12.0754 21.5622C13.3407 21.5622 14.5544 21.0525 15.4504 20.145L19.8404 15.6853C20.7338 14.7751 21.2354 13.5421 21.2354 12.2567C21.2354 10.9713 20.7338 9.7384 19.8404 8.82816L15.3004 4.23641C14.831 3.75825 14.268 3.38549 13.6479 3.14225C13.0278 2.89902 12.3643 2.79071 11.7004 2.82435L6.70038 3.06816C4.70038 3.15959 3.11038 4.77483 3.01038 6.79641L2.77038 11.8758C2.71038 13.2472 3.22038 14.578 4.17038 15.5431Z" stroke="#717171" stroke-width="1.5" stroke-linecap="round" stroke-linejoin="round"/>
<path d="M9.5 12.1907C10.163 12.1907 10.7989 11.9231 11.2678 11.4468C11.7366 10.9706 12 10.3246 12 9.65101C12 8.97744 11.7366 8.33147 11.2678 7.85518C10.7989 7.3789 10.163 7.11133 9.5 7.11133C8.83696 7.11133 8.20107 7.3789 7.73223 7.85518C7.26339 8.33147 7 8.97744 7 9.65101C7 10.3246 7.26339 10.9706 7.73223 11.4468C8.20107 11.9231 8.83696 12.1907 9.5 12.1907Z" stroke="#717171" stroke-width="1.5" stroke-linecap="round"/>
</svg>
