<svg width="26" height="24" viewBox="0 0 26 24" fill="none" xmlns="http://www.w3.org/2000/svg">
<path d="M9.0314 6V5.2C9.0314 3.43 9.0314 2 12.3082 2H13.9466C17.2234 2 17.2234 3.43 17.2234 5.2V6M9.0314 22H17.2234C21.3399 22 22.0772 20.39 22.2922 18.43L23.0602 10.43C23.3367 7.99 22.6199 6 18.2474 6H8.0074C3.63492 6 2.91812 7.99 3.1946 10.43L3.9626 18.43C4.17764 20.39 4.91492 22 9.0314 22Z" stroke="#717171" stroke-width="1.5" stroke-miterlimit="10" stroke-linecap="round" stroke-linejoin="round"/>
<path d="M15.1766 14.02V13C15.1766 12 15.1766 12 14.1526 12H12.1046C11.0806 12 11.0806 12 11.0806 13V14.03M15.1766 14.02C15.1766 15.11 15.1663 16 13.1286 16C11.101 16 11.0806 15.12 11.0806 14.03M15.1766 14.02C18.0071 13.6759 20.7022 12.6369 23.0102 11M11.0806 14.03C8.4284 13.74 5.82744 12.81 3.52344 11.27" stroke="#717171" stroke-width="1.5" stroke-miterlimit="10" stroke-linecap="round" stroke-linejoin="round"/>
</svg>
