<svg width="25" height="24" viewBox="0 0 25 24" fill="none" xmlns="http://www.w3.org/2000/svg">
<path d="M6.24805 10V8C6.24805 4.69 7.27205 2 12.392 2C17.512 2 18.536 4.69 18.536 8V10M12.392 18.5C13.071 18.5 13.7221 18.2366 14.2022 17.7678C14.6823 17.2989 14.952 16.663 14.952 16C14.952 15.337 14.6823 14.7011 14.2022 14.2322C13.7221 13.7634 13.071 13.5 12.392 13.5C11.7131 13.5 11.0619 13.7634 10.5819 14.2322C10.1018 14.7011 9.83205 15.337 9.83205 16C9.83205 16.663 10.1018 17.2989 10.5819 17.7678C11.0619 18.2366 11.7131 18.5 12.392 18.5Z" stroke="#717171" stroke-width="1.5" stroke-linecap="round" stroke-linejoin="round"/>
<path d="M17.5123 22H7.27234C3.17634 22 2.15234 21 2.15234 17V15C2.15234 11 3.17634 10 7.27234 10H17.5123C21.6083 10 22.6323 11 22.6323 15V17C22.6323 21 21.6083 22 17.5123 22Z" stroke="#717171" stroke-width="1.5" stroke-linecap="round" stroke-linejoin="round"/>
</svg>
