<svg width="24" height="24" viewBox="0 0 24 24" fill="none" xmlns="http://www.w3.org/2000/svg">
<g clip-path="url(#clip0_96_506)">
<path d="M12 22.5C17.799 22.5 22.5 17.799 22.5 12C22.5 6.20101 17.799 1.5 12 1.5C6.20101 1.5 1.5 6.20101 1.5 12C1.5 17.799 6.20101 22.5 12 22.5Z" stroke="#717171" stroke-width="1.5" stroke-miterlimit="10"/>
<path d="M11.9997 11C13.0128 11 13.9844 11.4025 14.7008 12.1189C15.4172 12.8352 15.8197 13.8069 15.8197 14.82C15.8197 15.0708 15.7703 15.3192 15.6743 15.5509C15.5783 15.7827 15.4376 15.9932 15.2603 16.1706C15.0829 16.3479 14.8723 16.4886 14.6406 16.5846C14.4089 16.6806 14.1605 16.73 13.9097 16.73H10.0897C9.83886 16.73 9.59049 16.6806 9.35876 16.5846C9.12703 16.4886 8.91647 16.3479 8.73911 16.1706C8.56175 15.9932 8.42106 15.7827 8.32508 15.5509C8.22909 15.3192 8.17969 15.0708 8.17969 14.82C8.17969 13.8069 8.58215 12.8352 9.29854 12.1189C10.0149 11.4025 10.9866 11 11.9997 11Z" stroke="#717171" stroke-width="1.5" stroke-miterlimit="10"/>
<path d="M10.0906 9.12953C10.6153 9.12953 11.0406 8.4893 11.0406 7.69953C11.0406 6.90976 10.6153 6.26953 10.0906 6.26953C9.56595 6.26953 9.14062 6.90976 9.14062 7.69953C9.14062 8.4893 9.56595 9.12953 10.0906 9.12953Z" stroke="#717171" stroke-width="1.5" stroke-miterlimit="10"/>
<path d="M13.9109 9.12953C14.4356 9.12953 14.8609 8.4893 14.8609 7.69953C14.8609 6.90976 14.4356 6.26953 13.9109 6.26953C13.3863 6.26953 12.9609 6.90976 12.9609 7.69953C12.9609 8.4893 13.3863 9.12953 13.9109 9.12953Z" stroke="#717171" stroke-width="1.5" stroke-miterlimit="10"/>
<path d="M17.2495 11.0498C17.5146 11.0498 17.7295 10.8349 17.7295 10.5698C17.7295 10.3047 17.5146 10.0898 17.2495 10.0898C16.9844 10.0898 16.7695 10.3047 16.7695 10.5698C16.7695 10.8349 16.9844 11.0498 17.2495 11.0498Z" stroke="#717171" stroke-width="1.5" stroke-miterlimit="10"/>
<path d="M6.74953 11.0498C7.01463 11.0498 7.22953 10.8349 7.22953 10.5698C7.22953 10.3047 7.01463 10.0898 6.74953 10.0898C6.48443 10.0898 6.26953 10.3047 6.26953 10.5698C6.26953 10.8349 6.48443 11.0498 6.74953 11.0498Z" stroke="#717171" stroke-width="1.5" stroke-miterlimit="10"/>
</g>
<defs>
<clipPath id="clip0_96_506">
<rect width="24" height="24" fill="white"/>
</clipPath>
</defs>
</svg>
