<svg width="26" height="24" viewBox="0 0 26 24" fill="none" xmlns="http://www.w3.org/2000/svg">
<path d="M8.70398 10.25H16.896M8.70398 13.75H14.848M20.992 7.04V16.96C20.992 18.48 20.8486 19.56 20.48 20.33C20.48 20.34 20.4697 20.36 20.4595 20.37C20.2342 20.65 19.9373 20.79 19.5891 20.79C19.0464 20.79 18.391 20.44 17.6845 19.7C16.8448 18.82 15.5545 18.89 14.8173 19.85L13.783 21.19C13.3734 21.73 12.8307 22 12.288 22C11.7453 22 11.2025 21.73 10.7929 21.19L9.74847 19.84C9.02143 18.89 7.74142 18.82 6.90174 19.69L6.8915 19.7C5.73438 20.91 4.71038 21.09 4.11646 20.37C4.10568 20.359 4.09855 20.345 4.09598 20.33C3.72734 19.56 3.58398 18.48 3.58398 16.96V7.04C3.58398 5.52 3.72734 4.44 4.09598 3.67C4.09598 3.66 4.09598 3.65 4.11646 3.64C4.70014 2.91 5.73438 3.09 6.8915 4.3L6.90174 4.31C7.74142 5.18 9.02143 5.11 9.74847 4.16L10.7929 2.81C11.2025 2.27 11.7453 2 12.288 2C12.8307 2 13.3734 2.27 13.783 2.81L14.8173 4.15C15.5545 5.11 16.8448 5.18 17.6845 4.3C18.391 3.56 19.0464 3.21 19.5891 3.21C19.9373 3.21 20.2342 3.36 20.4595 3.64C20.48 3.65 20.48 3.66 20.48 3.67C20.8486 4.44 20.992 5.52 20.992 7.04Z" stroke="#717171" stroke-width="1.5" stroke-linecap="round" stroke-linejoin="round"/>
</svg>
