<svg width="24" height="24" viewBox="0 0 24 24" fill="none" xmlns="http://www.w3.org/2000/svg">
<path d="M0.5 16.7899H18.71C19.7197 16.7926 20.6894 16.3954 21.407 15.6852C22.1247 14.975 22.5321 14.0095 22.54 12.9999C22.548 10.4599 21.548 8.0205 19.7595 6.21697C17.9709 4.41344 15.54 3.39311 13 3.37988H0.5" stroke="#717171" stroke-width="1.5" stroke-miterlimit="10"/>
<path d="M3.38094 20.63C4.44132 20.63 5.30094 19.7704 5.30094 18.71C5.30094 17.6497 4.44132 16.79 3.38094 16.79C2.32055 16.79 1.46094 17.6497 1.46094 18.71C1.46094 19.7704 2.32055 20.63 3.38094 20.63Z" stroke="#717171" stroke-width="1.5" stroke-miterlimit="10"/>
<path d="M13.92 20.63C14.9804 20.63 15.84 19.7704 15.84 18.71C15.84 17.6497 14.9804 16.79 13.92 16.79C12.8596 16.79 12 17.6497 12 18.71C12 19.7704 12.8596 20.63 13.92 20.63Z" stroke="#717171" stroke-width="1.5" stroke-miterlimit="10"/>
<path d="M17.7501 20.63C18.8105 20.63 19.6701 19.7704 19.6701 18.71C19.6701 17.6497 18.8105 16.79 17.7501 16.79C16.6897 16.79 15.8301 17.6497 15.8301 18.71C15.8301 19.7704 16.6897 20.63 17.7501 20.63Z" stroke="#717171" stroke-width="1.5" stroke-miterlimit="10"/>
<path d="M22.5402 13H15.8302C15.3234 12.9987 14.8218 12.8971 14.3545 12.701C13.8871 12.5049 13.4632 12.2183 13.1072 11.8576C12.7511 11.4969 12.47 11.0693 12.28 10.5994C12.09 10.1296 11.9949 9.62675 12.0002 9.11996C12.0055 8.61329 12.2097 8.12901 12.569 7.77166C12.9282 7.41431 13.4135 7.21256 13.9202 7.20996H20.6202C21.876 8.87817 22.5504 10.912 22.5402 13Z" stroke="#717171" stroke-width="1.5" stroke-miterlimit="10"/>
<path d="M0.5 7.20996H6.25C6.75749 7.20995 7.24434 7.41087 7.60412 7.76878C7.96391 8.12669 8.16736 8.61248 8.17 9.11996C8.15953 9.62221 7.95264 10.1004 7.5937 10.4518C7.23475 10.8033 6.75236 11.0001 6.25 11H0.5" stroke="#717171" stroke-width="1.5" stroke-miterlimit="10"/>
<path d="M3.38086 7.20996V11.04" stroke="#717171" stroke-width="1.5" stroke-miterlimit="10"/>
<path d="M0.5 20.6299H23.5" stroke="#717171" stroke-width="1.5" stroke-miterlimit="10"/>
</svg>
