<svg width="18" height="18" viewBox="0 0 18 18" fill="none" xmlns="http://www.w3.org/2000/svg">
<path d="M9.0007 1.5C7.0357 1.5 5.4382 3.0975 5.4382 5.0625C5.4382 6.99 6.9457 8.55 8.9107 8.6175C8.9707 8.61 9.0307 8.61 9.0757 8.6175H9.1282C10.0502 8.58674 10.9241 8.19861 11.5652 7.53518C12.2062 6.87175 12.5641 5.98503 12.5632 5.0625C12.5632 3.0975 10.9657 1.5 9.0007 1.5ZM12.8107 10.6117C10.7182 9.21675 7.3057 9.21675 5.1982 10.6117C4.2457 11.2493 3.7207 12.1117 3.7207 13.0343C3.7207 13.9567 4.2457 14.8118 5.1907 15.4418C6.2407 16.1468 7.6207 16.4993 9.0007 16.4993C10.3807 16.4993 11.7607 16.1468 12.8107 15.4418C13.7557 14.8043 14.2807 13.9492 14.2807 13.0192C14.2732 12.0967 13.7557 11.2417 12.8107 10.6117Z" fill="white"/>
</svg>
